<svg width="690" height="361" viewBox="0 0 690 361" fill="none" xmlns="http://www.w3.org/2000/svg">
<rect width="690" height="361" fill="#181B22"/>
<path d="M582.45 21C582.74 19.63 583.76 17.94 584.71 17.25C585.97 16.34 592.3 16 607.72 16C621.24 16 629 16.36 629 17C629 17.55 627.36 20.81 625.35 24.25C623.35 27.69 618.91 33.43 615.5 37C612.09 40.57 607.58 46.2 605.49 49.5C603.39 52.8 599.77 57.98 597.44 61C595.12 64.02 592.87 67.62 592.46 69C592.04 70.37 591.18 71.95 590.54 72.5C589.9 73.05 588.84 74.74 588.19 76.25C587.25 78.41 587.27 79.03 588.25 79.14C588.94 79.22 587.02 79.62 584 80.04C580.97 80.46 572.42 80.86 551.5 81.07L534 112.71C524.37 130.12 512.89 150.91 508.48 158.93C504.07 166.94 497.55 178.55 493.98 184.72C490.42 190.88 487.16 195.72 486.75 195.47C486.34 195.21 485.21 196.08 484.25 197.4C483.29 198.72 478.34 201.87 473.25 204.4C468.16 206.93 463.66 208.99 463.25 208.98C462.84 208.97 457.25 213.8 450.84 219.73C444.43 225.65 436.11 234.35 432.34 239.07C428.58 243.78 420.16 253 413.63 259.57C407.1 266.13 398.52 275.55 394.58 280.5C390.63 285.45 383.63 294.45 379.02 300.5C374.42 306.55 368.56 314.65 366.02 318.5C363.36 322.53 360.89 327.73 360.2 330.75C359.54 333.64 358.66 336.17 358.25 336.38C357.84 336.59 357.16 338.84 356 346H341.5C333.52 346 327 345.77 327 345.5C327 345.23 335.94 328.91 346.86 309.25C357.78 289.59 371.24 265.17 376.76 255C383.6 242.41 388.2 235.15 391.15 232.27C393.54 229.94 396.17 228.03 397 228.03C397.83 228.02 399.78 226.55 401.33 224.76C402.89 222.97 403.83 222.17 403.41 223C402.99 223.83 406.86 220.23 412 215C417.15 209.77 425.66 200.26 430.93 193.85C436.19 187.44 443.69 178.44 447.58 173.85C451.47 169.26 459.74 160.77 465.94 155C472.15 149.23 481.56 139.34 486.86 133.02C492.16 126.71 501.82 115.69 508.32 108.52C514.82 101.36 522.25 93.74 524.82 91.58C527.39 89.42 531.68 85.6 534.34 83.08C537 80.56 540.55 76.48 542.23 74C543.91 71.52 545.78 69.05 546.4 68.5C547.02 67.95 549.45 65.02 551.8 62C554.15 58.98 556.07 56.05 556.07 55.5C556.06 54.95 561.47 49.1 568.09 42.5C576.05 34.56 580.21 29.66 580.4 28C580.56 26.63 580.97 25.05 581.31 24.5C581.65 23.95 582.16 22.38 582.45 21Z" fill="#86CE38" stroke="white"/>
<path d="M217.83 19.17C217.74 18.16 218.04 17.03 218.5 16.67C218.96 16.3 232.76 16 279 16L277.18 22.75C276.18 26.46 274.42 31.3 273.27 33.5C272.12 35.7 270.25 39.3 269.12 41.5C268 43.7 263.79 48.65 259.77 52.5C255.76 56.35 250.57 61.19 248.24 63.25C244.89 66.21 244.19 67.37 244.91 68.75C245.56 69.99 245.26 71.31 243.91 73.25C242.33 75.53 242.25 76.04 243.47 76.25C244.36 76.4 244.66 77.02 244.22 77.78C243.7 78.71 238.07 79.32 224 79.96C209.35 80.63 202.7 81.37 197.25 82.92C193.26 84.07 185.84 87.08 180.75 89.62C174.92 92.54 172.1 93.56 173.12 92.37C174.02 91.34 175.93 88.59 177.37 86.25C178.82 83.91 179.55 82.23 179 82.5C178.45 82.77 178 82.77 178 82.5C178 82.23 179.13 80.2 180.5 78C181.88 75.8 182.79 73.66 182.53 73.25C182.27 72.84 182.44 71.82 182.91 71C183.38 70.17 187.46 65.23 191.98 60C196.5 54.77 202.41 46.9 205.13 42.5C207.84 38.1 210.59 32.7 211.23 30.5C211.87 28.3 212.98 26.16 213.7 25.75C214.41 25.34 215 24.1 215 23C215 21.89 215.67 21 216.5 21C217.35 21 217.93 20.2 217.83 19.17Z" fill="#FC7338"/>
<path d="M140.5 122.54C141.05 122.77 142.63 122.08 144 121C145.38 119.93 146.56 119.03 146.63 119.02C146.71 119.01 145.25 121.7 143.38 125C141.52 128.3 140 131.23 140 131.5C140 131.77 146.19 132.05 153.75 132.12C161.31 132.18 168.69 132.52 172.8 133.5L170.94 137.5C169.92 139.7 168.54 142.85 167.88 144.5C167.23 146.15 166.78 148.17 166.89 149C167 149.82 165.67 155 163.92 160.5C162.18 166 159.68 172.86 158.37 175.75C157.07 178.64 156.21 181.11 156.47 181.25C156.74 181.39 157.21 184.2 157.53 187.5C158.08 193.13 157.98 193.55 155.81 194.24C154.54 194.64 152.26 194.98 150.75 194.99C148.56 195 147.52 195.87 145.63 199.25C144.32 201.59 136.27 216.1 127.74 231.5C119.21 246.9 110.71 262.12 108.86 265.33C106.98 268.6 105.39 270.47 105.25 269.58C105.11 268.71 104.44 268.23 103.75 268.52C102.9 268.87 102.1 267.18 101.26 263.27C100.57 260.1 100.01 256.37 100 255C99.99 253.62 100.9 249.12 102.03 245C103.16 240.87 105.23 233 106.63 227.5C108.04 222 110.73 209.4 112.62 199.5C114.51 189.6 117.01 177.45 118.17 172.5C119.34 167.55 122.93 156.3 126.17 147.5C129.4 138.7 132.77 130.37 133.66 129C134.54 127.62 136.22 125.51 137.38 124.3C138.55 123.1 139.95 122.3 140.5 122.54Z" fill="#FC7338"/>
<path d="M217.83 19.17C217.74 18.16 218.04 17.03 218.5 16.67C218.96 16.3 232.76 16 279 16L277.18 22.75C276.18 26.46 274.42 31.3 273.27 33.5C272.12 35.7 270.25 39.3 269.12 41.5C268 43.7 263.79 48.65 259.77 52.5C255.76 56.35 250.57 61.19 248.24 63.25C244.89 66.21 244.19 67.37 244.91 68.75C245.56 69.99 245.26 71.31 243.91 73.25C242.33 75.53 242.25 76.04 243.47 76.25C244.36 76.4 244.66 77.02 244.22 77.78C243.7 78.71 238.07 79.32 224 79.96C209.35 80.63 202.7 81.37 197.25 82.92C193.26 84.07 185.84 87.08 180.75 89.62C174.92 92.54 172.1 93.56 173.12 92.37C174.02 91.34 175.93 88.59 177.37 86.25C178.82 83.91 179.55 82.23 179 82.5C178.45 82.77 178 82.77 178 82.5C178 82.23 179.13 80.2 180.5 78C181.88 75.8 182.79 73.66 182.53 73.25C182.27 72.84 182.44 71.82 182.91 71C183.38 70.17 187.46 65.23 191.98 60C196.5 54.77 202.41 46.9 205.13 42.5C207.84 38.1 210.59 32.7 211.23 30.5C211.87 28.3 212.98 26.16 213.7 25.75C214.41 25.34 215 24.1 215 23C215 21.89 215.67 21 216.5 21C217.35 21 217.93 20.2 217.83 19.17Z" stroke="white"/>
<path d="M140.5 122.54C141.05 122.77 142.63 122.08 144 121C145.38 119.93 146.56 119.03 146.63 119.02C146.71 119.01 145.25 121.7 143.38 125C141.52 128.3 140 131.23 140 131.5C140 131.77 146.19 132.05 153.75 132.12C161.31 132.18 168.69 132.52 172.8 133.5L170.94 137.5C169.92 139.7 168.54 142.85 167.88 144.5C167.23 146.15 166.78 148.17 166.89 149C167 149.82 165.67 155 163.92 160.5C162.18 166 159.68 172.86 158.37 175.75C157.07 178.64 156.21 181.11 156.47 181.25C156.74 181.39 157.21 184.2 157.53 187.5C158.08 193.13 157.98 193.55 155.81 194.24C154.54 194.64 152.26 194.98 150.75 194.99C148.56 195 147.52 195.87 145.63 199.25C144.32 201.59 136.27 216.1 127.74 231.5C119.21 246.9 110.71 262.12 108.86 265.33C106.98 268.6 105.39 270.47 105.25 269.58C105.11 268.71 104.44 268.23 103.75 268.52C102.9 268.87 102.1 267.18 101.26 263.27C100.57 260.1 100.01 256.37 100 255C99.99 253.62 100.9 249.12 102.03 245C103.16 240.87 105.23 233 106.63 227.5C108.04 222 110.73 209.4 112.62 199.5C114.51 189.6 117.01 177.45 118.17 172.5C119.34 167.55 122.93 156.3 126.17 147.5C129.4 138.7 132.77 130.37 133.66 129C134.54 127.62 136.22 125.51 137.38 124.3C138.55 123.1 139.95 122.3 140.5 122.54Z" stroke="white"/>
<path d="M338.67 41C342.32 35.52 344.31 31.14 346.02 24.75L348.38 16H438L437.17 18.75C436.72 20.26 435.35 22.85 434.15 24.5C432.94 26.15 431.78 28.85 431.58 30.5C431.38 32.15 429.21 36.2 426.75 39.5C424.29 42.8 418.17 50.11 413.14 55.75C408.11 61.39 403.55 67.12 403 68.5C402.333 70.1667 402.333 71.1667 403 71.5C403.6 71.8 403.2 73.6 400 80H315L316.58 76.25C317.45 74.19 318.89 70.7 319.79 68.5C320.68 66.3 324.17 60.9 327.55 56.5C330.92 52.1 335.93 45.13 338.67 41Z" fill="#FDD65A"/>
<path d="M232.42 148.25C232.66 146.74 233.16 142.46 233.53 138.75L234.2 132H266.1C283.64 132 297.98 132.34 297.97 132.75C297.96 133.16 295.19 138.45 291.82 144.5C288.44 150.55 281.59 162.67 276.59 171.43C271.33 180.64 266.23 188.32 264.49 189.66C262.84 190.93 259.24 192.66 256.49 193.5C252.82 194.62 246.91 195.02 234.24 195.01C224.75 195.01 217 194.66 217.01 194.25C217.02 193.84 217.72 190.8 218.56 187.5C219.41 184.2 220.71 180.15 221.47 178.5C222.23 176.85 224.9 169.99 227.42 163.25C229.93 156.51 232.19 149.76 232.42 148.25Z" fill="#FDD65A"/>
<path d="M338.67 41C342.32 35.52 344.31 31.14 346.02 24.75L348.38 16H438L437.17 18.75C436.72 20.26 435.35 22.85 434.15 24.5C432.94 26.15 431.78 28.85 431.58 30.5C431.38 32.15 429.21 36.2 426.75 39.5C424.29 42.8 418.17 50.11 413.14 55.75C408.11 61.39 403.55 67.12 403 68.5C402.333 70.1667 402.333 71.1667 403 71.5C403.6 71.8 403.2 73.6 400 80H315L316.58 76.25C317.45 74.19 318.89 70.7 319.79 68.5C320.68 66.3 324.17 60.9 327.55 56.5C330.92 52.1 335.93 45.13 338.67 41Z" stroke="white"/>
<path d="M232.42 148.25C232.66 146.74 233.16 142.46 233.53 138.75L234.2 132H266.1C283.64 132 297.98 132.34 297.97 132.75C297.96 133.16 295.19 138.45 291.82 144.5C288.44 150.55 281.59 162.67 276.59 171.43C271.33 180.64 266.23 188.32 264.49 189.66C262.84 190.93 259.24 192.66 256.49 193.5C252.82 194.62 246.91 195.02 234.24 195.01C224.75 195.01 217 194.66 217.01 194.25C217.02 193.84 217.72 190.8 218.56 187.5C219.41 184.2 220.71 180.15 221.47 178.5C222.23 176.85 224.9 169.99 227.42 163.25C229.93 156.51 232.19 149.76 232.42 148.25Z" stroke="white"/>
<path d="M277.02 23C277.68 19.98 278.42 17.16 278.66 16.75C278.9 16.34 294.6 16 313.55 16C335.85 16 348 16.35 348 17C348 17.55 347.01 21.49 345.81 25.75C344.37 30.87 341.93 36.05 338.64 41C335.9 45.13 330.92 52.1 327.58 56.49C324.23 60.89 320.09 67.86 315.21 79.5L275.36 79.58C253.44 79.63 237.41 79.51 239.75 79.33C242.41 79.12 244.19 78.44 244.5 77.5C244.8 76.61 244.39 76 243.5 76C242.27 76 242.34 75.51 243.91 73.25C245.26 71.31 245.56 69.99 244.91 68.75C244.19 67.37 244.89 66.21 248.24 63.25C250.57 61.19 255.76 56.35 259.77 52.5C263.79 48.65 268.07 43.55 269.29 41.17C270.5 38.79 272.47 34.96 273.65 32.67C274.84 30.38 276.35 26.02 277.02 23Z" fill="#FDA74A"/>
<path d="M172.8 133.5L170.15 132.87C168.69 132.52 182.46 132.18 234 132L233.43 138.75C233.12 142.46 232.67 146.74 232.43 148.25C232.19 149.76 229.69 157.19 226.87 164.75C224.05 172.31 221.41 178.95 221.01 179.5C220.6 180.05 219.54 183.76 217 195L185.75 194.88C168.56 194.82 155.29 194.6 156.25 194.38C157.76 194.05 157.93 193.14 157.47 187.75C157.19 184.31 156.74 181.39 156.47 181.25C156.21 181.11 157.07 178.64 158.37 175.75C159.68 172.86 162.18 166 163.92 160.5C165.67 155 167 149.82 166.89 149C166.78 148.18 167.23 146.15 167.88 144.5C168.54 142.85 169.92 139.7 172.8 133.5Z" fill="#FDA74A"/>
<path d="M277.02 23C277.68 19.98 278.42 17.16 278.66 16.75C278.9 16.34 294.6 16 313.55 16C335.85 16 348 16.35 348 17C348 17.55 347.01 21.49 345.81 25.75C344.37 30.87 341.93 36.05 338.64 41C335.9 45.13 330.92 52.1 327.58 56.49C324.23 60.89 320.09 67.86 315.21 79.5L275.36 79.58C253.44 79.63 237.41 79.51 239.75 79.33C242.41 79.12 244.19 78.44 244.5 77.5C244.8 76.61 244.39 76 243.5 76C242.27 76 242.34 75.51 243.91 73.25C245.26 71.31 245.56 69.99 244.91 68.75C244.19 67.37 244.89 66.21 248.24 63.25C250.57 61.19 255.76 56.35 259.77 52.5C263.79 48.65 268.07 43.55 269.29 41.17C270.5 38.79 272.47 34.96 273.65 32.67C274.84 30.38 276.35 26.02 277.02 23Z" stroke="white"/>
<path d="M172.8 133.5L170.15 132.87C168.69 132.52 182.46 132.18 234 132L233.43 138.75C233.12 142.46 232.67 146.74 232.43 148.25C232.19 149.76 229.69 157.19 226.87 164.75C224.05 172.31 221.41 178.95 221.01 179.5C220.6 180.05 219.54 183.76 217 195L185.75 194.88C168.56 194.82 155.29 194.6 156.25 194.38C157.76 194.05 157.93 193.14 157.47 187.75C157.19 184.31 156.74 181.39 156.47 181.25C156.21 181.11 157.07 178.64 158.37 175.75C159.68 172.86 162.18 166 163.92 160.5C165.67 155 167 149.82 166.89 149C166.78 148.18 167.23 146.15 167.88 144.5C168.54 142.85 169.92 139.7 172.8 133.5Z" stroke="white"/>
<path d="M625.35 24.25C627.36 20.81 629 17.55 629 17C629 16.36 637.17 16 674 16L667.18 28.25C663.43 34.99 655.78 48.71 650.18 58.75C642.08 73.28 639.34 77.36 636.75 78.75C633.9 80.28 630.16 80.52 606.5 80.62C591.65 80.69 581.75 80.42 584.5 80.03C587.25 79.64 588.94 79.24 588.25 79.16C587.27 79.03 587.25 78.41 588.19 76.25C588.84 74.74 589.9 73.05 590.54 72.5C591.18 71.95 592.04 70.38 592.46 69C592.87 67.63 595.12 64.02 597.44 61C599.77 57.98 603.39 52.8 605.49 49.5C607.58 46.2 612.09 40.57 615.5 37C618.91 33.43 623.35 27.69 625.35 24.25Z" fill="#69BC36"/>
<path d="M473.25 204.4C478.34 201.87 483.33 198.72 484.34 197.39C485.35 196.07 486.58 195.21 487.09 195.49C487.59 195.77 486.92 197.91 485.6 200.25C484.28 202.59 478.38 213.27 472.47 224C466.57 234.73 459.39 247.77 456.51 253C453.63 258.23 447.54 269.25 442.97 277.5C438.4 285.75 431.69 297.9 428.05 304.5C424.42 311.1 420.03 318.52 418.31 321C416.59 323.48 413.46 327.14 411.34 329.15C409.23 331.15 405.02 334.34 402 336.22C398.98 338.11 394.48 340.45 392 341.42C389.52 342.39 384.24 343.82 380.25 344.59C376.26 345.37 369.17 346 356 346L356.61 341.75C356.95 339.41 357.59 337.05 358.03 336.5C358.48 335.95 359.42 333.25 360.13 330.5C360.84 327.75 363.5 322.35 366.03 318.5C368.57 314.65 374.42 306.55 379.02 300.5C383.63 294.45 390.63 285.45 394.58 280.5C398.52 275.55 407.1 266.13 413.63 259.57C420.16 253 428.58 243.78 432.34 239.07C436.11 234.35 444.43 225.65 450.84 219.73C457.25 213.8 462.84 208.97 463.25 208.98C463.66 208.99 468.16 206.93 473.25 204.4Z" fill="#69BC36"/>
<path d="M625.35 24.25C627.36 20.81 629 17.55 629 17C629 16.36 637.17 16 674 16L667.18 28.25C663.43 34.99 655.78 48.71 650.18 58.75C642.08 73.28 639.34 77.36 636.75 78.75C633.9 80.28 630.16 80.52 606.5 80.62C591.65 80.69 581.75 80.42 584.5 80.03C587.25 79.64 588.94 79.24 588.25 79.16C587.27 79.03 587.25 78.41 588.19 76.25C588.84 74.74 589.9 73.05 590.54 72.5C591.18 71.95 592.04 70.38 592.46 69C592.87 67.63 595.12 64.02 597.44 61C599.77 57.98 603.39 52.8 605.49 49.5C607.58 46.2 612.09 40.57 615.5 37C618.91 33.43 623.35 27.69 625.35 24.25Z" stroke="white"/>
<path d="M473.25 204.4C478.34 201.87 483.33 198.72 484.34 197.39C485.35 196.07 486.58 195.21 487.09 195.49C487.59 195.77 486.92 197.91 485.6 200.25C484.28 202.59 478.38 213.27 472.47 224C466.57 234.73 459.39 247.77 456.51 253C453.63 258.23 447.54 269.25 442.97 277.5C438.4 285.75 431.69 297.9 428.05 304.5C424.42 311.1 420.03 318.52 418.31 321C416.59 323.48 413.46 327.14 411.34 329.15C409.23 331.15 405.02 334.34 402 336.22C398.98 338.11 394.48 340.45 392 341.42C389.52 342.39 384.24 343.82 380.25 344.59C376.26 345.37 369.17 346 356 346L356.61 341.75C356.95 339.41 357.59 337.05 358.03 336.5C358.48 335.95 359.42 333.25 360.13 330.5C360.84 327.75 363.5 322.35 366.03 318.5C368.57 314.65 374.42 306.55 379.02 300.5C383.63 294.45 390.63 285.45 394.58 280.5C398.52 275.55 407.1 266.13 413.63 259.57C420.16 253 428.58 243.78 432.34 239.07C436.11 234.35 444.43 225.65 450.84 219.73C457.25 213.8 462.84 208.97 463.25 208.98C463.66 208.99 468.16 206.93 473.25 204.4Z" stroke="white"/>
<path d="M189.5 21.53C193.35 20 199.2 18.17 202.5 17.46C205.8 16.74 210.75 16.13 213.5 16.1C218.24 16.04 218.49 16.17 218.25 18.52C218.11 19.95 217.36 21 216.5 21C215.67 21 215 21.89 215 23C215 24.1 214.41 25.34 213.7 25.75C212.98 26.16 211.87 28.3 211.23 30.5C210.59 32.7 207.84 38.1 205.13 42.5C202.41 46.9 196.5 54.77 191.98 60C187.46 65.23 183.38 70.18 182.91 71C182.44 71.83 182.27 72.84 182.53 73.25C182.79 73.66 181.88 75.8 180.5 78C179.13 80.2 178 82.23 178 82.5C178 82.77 178.55 82.66 179.22 82.25C179.9 81.84 178.77 84.09 176.72 87.25C174.68 90.41 173.34 93.34 173.75 93.75C174.16 94.16 174.14 94.27 173.71 94C173.27 93.73 171.25 94.85 169.21 96.5C167.17 98.15 162.58 102.44 159 106.03C155.42 109.63 150.7 114.57 148.5 117.01C146.3 119.46 145.17 121.02 146 120.49C147.1 119.78 147.3 119.85 146.75 120.76C146.34 121.44 145.55 121.77 145 121.5C144.45 121.23 143.33 121.45 142.5 122C141.67 122.55 140.66 122.79 140.25 122.53C139.84 122.27 138.55 123.05 137.38 124.28C136.22 125.5 134.54 127.63 133.66 129C132.77 130.38 129.4 138.7 126.17 147.5C122.93 156.3 119.34 167.55 118.17 172.5C117.01 177.45 114.51 189.6 112.62 199.5C110.73 209.4 108.04 222 106.63 227.5C105.23 233 103.16 240.88 102.03 245C100.9 249.13 99.99 253.63 100 255C100.01 256.38 100.57 260.1 101.26 263.27C102.1 267.18 102.9 268.87 103.75 268.52C104.53 268.2 105.01 268.84 105.03 270.25C105.04 271.49 103.35 274.69 101.28 277.37C99.2 280.05 94.58 284.44 91 287.13C87.42 289.81 81.13 293.3 77 294.87C72.88 296.45 68.04 298.02 66.25 298.37C63.12 298.98 63 298.88 63.01 295.75C63.01 293.96 62.55 290.02 61.99 287C61.16 282.54 61.36 279.32 63.02 270C64.14 263.67 66.22 252.2 67.64 244.5C69.46 234.58 70.28 226.42 70.44 216.5C70.63 205.3 71.03 201.8 72.47 199C73.46 197.08 82.61 180.42 92.79 162C102.98 143.58 121.18 110.73 133.24 89C145.3 67.27 157.04 47.08 159.33 44.12C161.63 41.16 165.41 37 167.75 34.87C170.09 32.74 174.36 29.49 177.25 27.65C180.14 25.81 185.65 23.05 189.5 21.53Z" fill="#FA5832" stroke="white"/>
<path d="M542 18.06C540.8 17.33 541 17.06 543 16.71C544.37 16.47 554.73 16.2 566 16.12C582.78 15.99 586.18 16.2 584.74 17.23C583.77 17.93 582.74 19.63 582.45 21C582.16 22.38 581.65 23.95 581.31 24.5C580.97 25.05 580.56 26.63 580.4 28C580.21 29.66 576.05 34.56 568.09 42.5C561.47 49.1 556.06 54.95 556.07 55.5C556.07 56.05 554.15 58.98 551.8 62C549.45 65.02 547.02 67.95 546.4 68.5C545.78 69.05 543.91 71.52 542.23 74C540.55 76.48 537 80.56 534.34 83.08C531.68 85.6 527.39 89.42 524.82 91.58C522.25 93.74 514.82 101.36 508.32 108.52C501.82 115.69 492.16 126.71 486.86 133.02C481.56 139.34 472.15 149.23 465.94 155C459.74 160.77 451.47 169.26 447.58 173.85C443.69 178.44 436.19 187.44 430.93 193.85C425.66 200.26 417.15 209.77 412 215C406.86 220.23 402.99 223.83 403.41 223C403.83 222.17 402.89 222.97 401.33 224.76C399.78 226.55 397.83 228.02 397 228.02C396.17 228.03 393.99 229.49 388.78 234.5L391.51 229C393.01 225.98 400.53 212.02 408.22 198C415.91 183.98 424.34 168.68 426.97 164C429.59 159.33 433.9 151.45 436.55 146.5C439.19 141.55 444.26 132.33 447.8 126C451.35 119.68 455.09 113.49 456.12 112.25C457.16 111.01 457.69 109.44 457.31 108.75C456.89 108 457.36 108.09 458.5 109C459.83 110.06 460.11 110.1 459.44 109.14C458.807 108.227 458.927 107.56 459.8 107.14C460.51 106.79 461.19 105.32 461.3 103.88C461.433 102.133 461.923 101.467 462.77 101.88C463.46 102.22 465.04 101.48 466.27 100.24C467.5 99 468.83 98.32 469.24 98.74C469.65 99.16 470.94 98.6 472.1 97.5C473.26 96.4 474.28 95.69 474.35 95.93C474.43 96.17 476.51 95.04 478.97 93.43C481.44 91.82 484.81 88.96 486.47 87.09C488.14 85.21 490.63 82.23 492 80.46C493.38 78.69 499.72 71.23 506.09 63.87C512.47 56.52 522.07 46 527.43 40.5C532.78 35 537.27 30.05 537.39 29.5C537.51 28.95 538.29 27.15 539.13 25.5C539.96 23.85 540.5 21.71 540.32 20.75C540.12 19.63 540.63 18.99 541.75 18.98C543.23 18.97 543.27 18.83 542 18.06Z" fill="#A2DC3E" stroke="white"/>
<path d="M501.08 23.29C503.15 19.53 505.29 16.92 506.5 16.68C507.6 16.45 516.83 16.27 527 16.27C537.17 16.27 544.37 16.47 543 16.71C541 17.06 540.8 17.33 542 18.06C543.27 18.83 543.23 18.97 541.75 18.98C540.63 18.99 540.12 19.63 540.32 20.75C540.5 21.71 539.96 23.85 539.13 25.5C538.29 27.15 537.51 28.95 537.39 29.5C537.27 30.05 532.78 35 527.43 40.5C522.07 46 512.47 56.52 506.09 63.87C499.72 71.23 493.37 78.69 492 80.46C490.62 82.23 488.14 85.21 486.47 87.09C484.81 88.96 481.55 91.74 479.22 93.25C476.9 94.76 474.82 95.89 474.6 95.75C474.39 95.61 473.26 96.29 472.1 97.25C470.95 98.21 469.66 98.78 469.25 98.52C468.84 98.25 467.6 98.94 466.5 100.05C465.4 101.16 463.94 102.05 463.25 102.03C462.56 102.01 461.77 103.12 461.5 104.5C461.23 105.87 460.55 107 460 107C459.45 107 459.26 107.79 459.57 108.75C459.89 109.71 459.77 110.18 459.32 109.79C458.87 109.4 457.69 110.08 456.7 111.29C455.71 112.51 456.04 111.59 457.45 109.25C458.85 106.91 460 104.77 460 104.5C460 104.23 462.92 98.82 466.5 92.5C470.08 86.18 473 80.77 473 80.5C473 80.23 469.62 80 465.5 80C458.21 80 458.02 79.94 458.61 77.75C458.95 76.51 460.64 72.84 462.36 69.59C464.09 66.34 468.93 59.59 473.11 54.59C477.3 49.59 484.54 41.9 489.19 37.5C494.63 32.36 498.88 27.28 501.08 23.29Z" fill="#C5E74A" stroke="white"/>
<path d="M20.62 292.25C23.15 287.44 35.17 265.54 47.32 243.59L69.4 203.68L70.29 207.59C70.77 209.74 70.91 215.77 70.59 221C70.27 226.22 68.89 236.8 67.53 244.5C66.17 252.2 64.16 263.45 63.07 269.5C61.33 279.07 61.22 281.54 62.22 288.5C62.85 292.9 63.12 297.17 62.82 298C62.5 298.89 60.29 299.81 57.39 300.26C54.7 300.67 44.29 301.01 16 301L20.62 292.25Z" fill="#E63D2D" stroke="white"/>
<path d="M436.82 18.92C436.73 18.05 437.04 17.03 437.5 16.67C437.96 16.3 454.12 16.06 473.42 16.14C492.71 16.21 507.6 16.45 506.5 16.68C505.29 16.92 503.15 19.53 501.08 23.29C498.88 27.28 494.63 32.36 489.19 37.5C484.54 41.9 477.15 49.77 472.78 55C467.92 60.8 463.4 67.51 457.5 79.95L400 80L402 76C403.2 73.6 403.6 71.8 403 71.5C402.333 71.1667 402.333 70.1667 403 68.5C403.55 67.12 408.11 61.39 413.14 55.75C418.17 50.11 424.29 42.8 426.75 39.5C429.21 36.2 431.39 32.15 431.6 30.5C431.81 28.85 433.1 25.92 434.48 24C435.85 22.07 436.9 19.79 436.82 18.92Z" fill="#EAEE59" stroke="white"/>
<path d="M322.06 141.03C323.95 139.67 327.08 137.97 329 137.26C331.17 136.46 334.79 136.16 338.5 136.49C341.87 136.78 346.47 138.02 349 139.32C352.06 140.89 354.46 143.18 356.5 146.5C358.77 150.19 359.58 152.84 359.84 157.43C360.06 161.27 359.62 164.97 358.65 167.5C357.8 169.7 355.06 173.41 352.55 175.75C349.78 178.34 346.34 180.43 343.75 181.1C341.41 181.71 337.22 182.05 334.44 181.85C331.05 181.62 327.76 180.51 324.44 178.5C320.69 176.21 318.84 174.17 316.73 170C314.7 165.95 313.98 163.05 313.99 159C314.01 155.42 314.82 151.75 316.32 148.5C317.63 145.66 320.11 142.43 322.06 141.03Z" fill="#EDEEF0"/>
<path d="M383.22 140.31C384.48 139.11 386.62 137.67 388 137.12C389.37 136.58 391.4 136.09 392.5 136.05C393.6 136 395.34 136.54 396.37 137.23C397.92 138.29 398.13 139.3 397 148L392.25 147.32C387.83 146.68 387.27 146.86 381 153V181H369V137H375C380.89 137 381 137.05 380.95 142.5L383.22 140.31Z" fill="#EDEEF0"/>
<path d="M322.06 141.03C323.95 139.67 327.08 137.97 329 137.26C331.17 136.46 334.79 136.16 338.5 136.49C341.87 136.78 346.47 138.02 349 139.32C352.06 140.89 354.46 143.18 356.5 146.5C358.77 150.19 359.58 152.84 359.84 157.43C360.06 161.27 359.62 164.97 358.65 167.5C357.8 169.7 355.06 173.41 352.55 175.75C349.78 178.34 346.34 180.43 343.75 181.1C341.41 181.71 337.22 182.05 334.44 181.85C331.05 181.62 327.76 180.51 324.44 178.5C320.69 176.21 318.84 174.17 316.73 170C314.7 165.95 313.98 163.05 313.99 159C314.01 155.42 314.82 151.75 316.32 148.5C317.63 145.66 320.11 142.43 322.06 141.03Z" stroke="white"/>
<path d="M383.22 140.31C384.48 139.11 386.62 137.67 388 137.12C389.37 136.58 391.4 136.09 392.5 136.05C393.6 136 395.34 136.54 396.37 137.23C397.92 138.29 398.13 139.3 397 148L392.25 147.32C387.83 146.68 387.27 146.86 381 153V181H369V137H375C380.89 137 381 137.05 380.95 142.5L383.22 140.31Z" stroke="white"/>
<path d="M328 152.62C328.83 151.15 330.85 149.29 332.5 148.49C334.15 147.7 335.84 147.04 336.25 147.02C336.66 147.01 338.58 147.68 340.5 148.5C342.833 149.5 344.5 151.167 345.5 153.5C346.33 155.43 347 158.12 347 159.5C347 160.87 346.33 163.35 345.5 165C344.67 166.65 342.54 168.73 340.75 169.62C338.09 170.94 336.82 171.03 333.75 170.12C331.59 169.47 329.26 167.85 328.25 166.29C327.29 164.81 326.5 161.72 326.5 159.45C326.5 157.17 327.17 154.1 328 152.62Z" fill="#181B22" stroke="white"/>
</svg>
